<?xml version="1.0" encoding="UTF-8"?>
<svg width="18px" height="20px" viewBox="0 0 18 20" version="1.1" xmlns="http://www.w3.org/2000/svg" xmlns:xlink="http://www.w3.org/1999/xlink">
    <title>账户余额</title>
    <g id="页面-2" stroke="none" stroke-width="1" fill="none" fill-rule="evenodd" opacity="0.75">
        <g id="控制台" transform="translate(-1541, -150)" fill="#FFFFFF" fill-rule="nonzero">
            <g id="编组-9" transform="translate(1518, 132)">
                <g id="编组-17" transform="translate(16, 12)">
                    <g id="账户余额" transform="translate(7, 6)">
                        <path d="M0,4.76943347 C0,7.37812912 4.03714286,9.48616601 9,9.48616601 C13.9628571,9.48616601 18,7.37812912 18,4.743083 C18,2.10803689 13.9628571,0 9,0 C4.03714286,0 0,2.13438735 0,4.76943347 Z M9,10.9354414 C5.32285714,10.9354414 2.16,9.77602108 0.771428571,8.11594203 C0.308571429,8.64295125 0.0257142857,9.32806324 0,10.0395257 C0,12.6482213 4.03714286,14.7562582 9,14.7562582 C13.9628571,14.7562582 18,12.6482213 18,10.0131752 C17.9742857,9.30171278 17.7171429,8.61660079 17.2285714,8.08959157 C15.84,9.74967062 12.6771429,10.9090909 9,10.9354414 Z M9,16.3109354 C5.27142857,16.3109354 2.08285714,15.1251647 0.72,13.4123847 C0.282857143,13.9130435 0.0257142857,14.571805 0,15.256917 C0,17.8656126 4.03714286,20 9,20 C13.9628571,20 18,17.8919631 18,15.256917 C17.9742857,14.571805 17.7428571,13.9130435 17.28,13.4123847 C15.9171429,15.1251647 12.7285714,16.3109354 9,16.3109354 L9,16.3109354 Z" id="形状"></path>
                    </g>
                </g>
            </g>
        </g>
    </g>
</svg>