<?xml version="1.0" encoding="UTF-8"?>
<svg width="19px" height="20px" viewBox="0 0 19 20" version="1.1" xmlns="http://www.w3.org/2000/svg" xmlns:xlink="http://www.w3.org/1999/xlink">
    <title>资产库</title>
    <g id="页面-2" stroke="none" stroke-width="1" fill="none" fill-rule="evenodd" opacity="0.75">
        <g id="控制台" transform="translate(-1541, -338)" fill="#FFFFFF" fill-rule="nonzero">
            <g id="编组-9" transform="translate(1518, 132)">
                <g id="编组-13" transform="translate(0, 188)">
                    <g id="资产库" transform="translate(23, 18)">
                        <path d="M7.74534338,10.2526705 L0.742926206,6.87173596 C0.483577425,6.75041056 0.17289918,6.85555924 0.0513294403,7.11438676 C0.0162093016,7.18448589 0,7.27076173 0,7.33816473 L0,15.0679409 C0,15.4480938 0.208019341,15.7931972 0.534906865,15.9657489 L7.5724442,19.9182609 C7.83179298,20.055763 8.14247122,19.9694871 8.28025024,19.7295324 C8.33157968,19.6432566 8.35049054,19.5569808 8.35049054,19.4707049 L8.35049054,11.185528 C8.33428124,10.7891984 8.09114176,10.4252222 7.74534338,10.2526705 Z M9.94170339,0.0909940494 L18.2570738,3.61212682 C18.5164226,3.71457939 18.6379923,3.99227974 18.5326319,4.25110728 C18.4813025,4.38860941 18.375942,4.49375808 18.2570738,4.52611153 L9.94170339,8.04454817 C9.64723445,8.16587357 9.33655623,8.16587357 9.04208731,8.04454817 L0.726716905,4.52611153 C0.467368123,4.42365896 0.345798383,4.14595861 0.451158821,3.88713106 C0.502488262,3.74962894 0.607848722,3.64448027 0.726716905,3.61212682 L9.04208731,0.0909940494 C9.33655625,-0.0303313498 9.64723447,-0.0303313498 9.94170339,0.0909940494 Z M18.2570738,6.87173596 C18.5164226,6.75041056 18.8271008,6.85555924 18.9486706,7.11438676 C18.9837907,7.18448589 19,7.27076173 19,7.33816473 L19,15.0679409 C19,15.4480938 18.7919807,15.7931972 18.4650931,15.9819256 L11.4275558,19.9344376 C11.168207,20.0719397 10.8575288,19.9856639 10.7197498,19.7457092 C10.6684203,19.67561 10.6495095,19.5731575 10.6495095,19.4868816 L10.6495095,11.2017047 C10.6495095,10.8053751 10.8737381,10.4413989 11.2384473,10.2688472 L18.2570738,6.87173596 L18.2570738,6.87173596 Z" id="形状"></path>
                    </g>
                </g>
            </g>
        </g>
    </g>
</svg>