<?xml version="1.0" encoding="UTF-8"?>
<svg width="20px" height="15px" viewBox="0 0 20 15" version="1.1" xmlns="http://www.w3.org/2000/svg" xmlns:xlink="http://www.w3.org/1999/xlink">
    <title>使用秘籍</title>
    <g id="页面-2" stroke="none" stroke-width="1" fill="none" fill-rule="evenodd" opacity="0.75">
        <g id="控制台1440备份" transform="translate(-1098, -606)" fill="#FFFFFF">
            <g id="编组-9" transform="translate(1076, 132)">
                <g id="编组-11" transform="translate(0, 454)">
                    <g id="使用秘籍-2" transform="translate(22, 20)">
                        <g id="使用秘籍" transform="translate(0, 0)">
                            <path d="M0.616247584,0.365290656 L2.5,0.10426895 C4.14535572,-0.123719375 5.82096666,0.0232901594 7.40148643,0.534300303 L9.28571429,1.14350467 L9.28571429,1.14350467 L9.28571429,14.9999809 L7.40148643,14.3907766 C5.82096666,13.8797664 4.14535572,13.7327569 2.5,13.9607452 L0.812323844,14.1945977 C0.421568194,14.2487426 0.0609049849,13.9758658 0.00676002094,13.5851101 C0.00225868439,13.5526247 -2.22044605e-16,13.5198678 -1.11022302e-16,13.487072 L0,1.07281635 C-2.22044605e-16,0.716209588 0.26301576,0.41423614 0.616247584,0.365290656 Z M19.3837524,0.365290656 L17.5,0.10426895 C15.8546443,-0.123719375 14.1790333,0.0232901594 12.5985136,0.534300303 L10.7142857,1.14350467 L10.7142857,1.14350467 L10.7142857,14.9999809 L12.5985136,14.3907766 C14.1790333,13.8797664 15.8546443,13.7327569 17.5,13.9607452 L19.1876762,14.1945977 C19.5784318,14.2487426 19.939095,13.9758658 19.99324,13.5851101 C19.9977413,13.5526247 20,13.5198678 20,13.487072 L20,1.07281635 C20,0.716209588 19.7369842,0.41423614 19.3837524,0.365290656 Z" id="形状结合"></path>
                        </g>
                    </g>
                </g>
            </g>
        </g>
    </g>
</svg>