<?xml version="1.0" encoding="UTF-8"?>
<svg width="12px" height="12px" viewBox="0 0 12 12" version="1.1" xmlns="http://www.w3.org/2000/svg" xmlns:xlink="http://www.w3.org/1999/xlink">
    <title>箭头下</title>
    <g id="页面-2" stroke="none" stroke-width="1" fill="none" fill-rule="evenodd">
        <g id="控制台" transform="translate(-1828, -507)">
            <g id="编组-9" transform="translate(1518, 132)">
                <g id="编组-12" transform="translate(0, 352)">
                    <g id="编组-8" transform="translate(254, 12)">
                        <g id="箭头下" transform="translate(62, 17) rotate(-90) translate(-62, -17)translate(56, 11)">
                            <rect id="矩形" x="0" y="0" width="12" height="12"></rect>
                            <path d="M2.95060201,4.13994183 L5.99935444,7.1881894 L9.04939799,4.13994183 C9.26906791,3.92027192 9.62522321,3.92027192 9.84489312,4.13994183 C10.064563,4.35961175 10.064563,4.71576705 9.84489312,4.93543696 L6.39774756,8.38258252 C6.32452426,8.45580583 6.23613591,8.50462136 6.14269255,8.52902913 L6.04793863,8.54530098 L5.95206137,8.54530098 C5.82447466,8.53445308 5.69988351,8.48021359 5.60225244,8.38258252 L2.15510688,4.93543696 C1.93543696,4.71576705 1.93543696,4.35961175 2.15510688,4.13994183 C2.37477679,3.92027192 2.73093209,3.92027192 2.95060201,4.13994183 Z" id="形状结合" fill="#2A69FF"></path>
                        </g>
                    </g>
                </g>
            </g>
        </g>
    </g>
</svg>