<?xml version="1.0" encoding="UTF-8"?>
<svg width="24px" height="24px" viewBox="0 0 24 24" version="1.1" xmlns="http://www.w3.org/2000/svg" xmlns:xlink="http://www.w3.org/1999/xlink">
    <title>帮助</title>
    <g id="页面-3" stroke="none" stroke-width="1" fill="none" fill-rule="evenodd">
        <g id="切图/图标库" transform="translate(-675, -754)">
            <g id="帮助" transform="translate(675, 754)">
                <rect id="矩形" x="0" y="0" width="24" height="24"></rect>
                <g transform="translate(2, 2)" fill="rgba(255, 255, 255, 0.65)">
                    <path d="M10,-0.75 C12.8892097,-0.75 15.5988541,0.396084948 17.601383,2.39860284 C19.6039092,4.4011512 20.75,7.11079485 20.75,10 C20.75,12.8892088 19.6039062,15.598854 17.6013801,17.6013801 C15.598854,19.6039062 12.8892088,20.75 10,20.75 C7.11079485,20.75 4.4011512,19.6039092 2.39859845,17.6013786 C0.396084948,15.5988541 -0.75,12.8892097 -0.75,10 C-0.75,7.11079391 0.396081903,4.40115112 2.39860431,2.39859552 C4.40115112,0.396081903 7.11079391,-0.75 10,-0.75 Z M10,0.75 C7.51270568,0.75 5.18328879,1.73525996 3.45926448,3.45925569 C1.73525996,5.18328879 0.75,7.51270568 0.75,10 C0.75,12.4872962 1.73526145,14.8167118 3.45925716,16.540717 C5.18329202,18.2647328 7.51270878,19.25 10,19.25 C12.4872931,19.25 14.8167085,18.2647313 16.5407199,16.5407199 C18.2647313,14.8167085 19.25,12.4872931 19.25,10 C19.25,7.51270878 18.2647328,5.18329202 16.5407214,3.45926155 C14.8167118,1.73526145 12.4872962,0.75 10,0.75 Z M10,3.5624 C12.0710636,3.5624 13.75,5.24133644 13.75,7.3124 C13.75,9.11622955 12.4763843,10.6225974 10.7793516,10.981305 L10.75,10.9854 L10.75,12.3124 C10.75,12.6920958 10.4678461,13.005891 10.1017706,13.0555534 L10,13.0624 C9.58578644,13.0624 9.25,12.7266136 9.25,12.3124 L9.25,10.3124 C9.25,9.89818644 9.58578644,9.5624 10,9.5624 C11.2426364,9.5624 12.25,8.55503644 12.25,7.3124 C12.25,6.06976356 11.2426364,5.0624 10,5.0624 C8.75736356,5.0624 7.75,6.06976356 7.75,7.3124 C7.75,7.72661356 7.41421356,8.0624 7,8.0624 C6.58578644,8.0624 6.25,7.72661356 6.25,7.3124 C6.25,5.24133644 7.92893644,3.5624 10,3.5624 Z" id="形状结合" fill-rule="nonzero"></path>
                    <path d="M10,16.8124 C10.69035,16.8124 11.25,16.25275 11.25,15.5624 C11.25,14.87205 10.69035,14.3124 10,14.3124 C9.30965,14.3124 8.75,14.87205 8.75,15.5624 C8.75,16.25275 9.30965,16.8124 10,16.8124 Z" id="路径"></path>
                </g>
            </g>
        </g>
    </g>
</svg>