<?xml version="1.0" encoding="UTF-8"?>
<svg width="24px" height="24px" viewBox="0 0 24 24" version="1.1" xmlns="http://www.w3.org/2000/svg" xmlns:xlink="http://www.w3.org/1999/xlink">
    <title>未点赞</title>
    <g id="页面-3" stroke="none" stroke-width="1" fill="none" fill-rule="evenodd">
        <g id="切图/图标库" transform="translate(-424, -468)">
            <g id="未点赞" transform="translate(424, 468)">
                <rect id="矩形" x="0" y="0" width="24" height="24"></rect>
                <g id="编组" transform="translate(2.25, 2.25)" fill="#333333" fill-rule="nonzero">
                    <path d="M8.84088755,0 C10.7447902,0 12.2878168,1.54480126 12.2878168,3.450015 L12.2869819,6.3 L16.923145,6.30006351 C17.6085408,6.29226753 18.2653023,6.56105202 18.747872,7.04091241 L18.8750538,7.1769675 C19.3653463,7.74148127 19.5832611,8.49296494 19.4709832,9.23356018 L18.2305853,17.3323158 C18.0402072,18.5894205 16.9533954,19.5143055 15.6910878,19.5002925 L5.24498192,19.5002925 L5.23,19.499 L2.85789465,19.4996974 C1.42418702,19.5250869 0.198861852,18.4721107 0.00675313106,17.0502346 L0,16.949815 L0,10.649815 L0.00675376864,10.5493907 C0.200412535,9.1161106 1.43278756,7.97504545 2.84461503,8.000165 L4.801,8 L8.15540015,0.445685993 C8.27570827,0.17468399 8.54438101,0 8.84088755,0 Z M9.30298192,1.556 L5.99498192,9.007 L5.99498192,18 L15.6994807,18.0002452 C16.1817058,18.0055754 16.5998434,17.6817197 16.7231379,17.2236661 L16.7476854,17.1064698 L17.9881011,9.00759679 C18.0343107,8.70279163 17.9444975,8.39306901 17.7425957,8.16060294 C17.540788,7.92827878 17.2474421,7.79647185 16.9316752,7.800015 L11.5378168,7.800015 C11.1236032,7.800015 10.7878168,7.46422856 10.7878168,7.050015 L10.7878168,3.450015 C10.7878168,2.56869217 10.2041884,1.82415203 9.40312437,1.5825448 L9.30298192,1.556 Z M4.494,9.49987172 L2.83133541,9.50004743 C2.23490855,9.48948534 1.66882246,9.97610877 1.51886912,10.6118528 L1.5,10.7108717 L1.5,16.8868717 L1.51765604,16.9806034 C1.65048836,17.5382762 2.12884248,17.9487608 2.70902906,17.9955678 L2.84461503,17.999815 L4.494,17.9988717 L4.494,9.49987172 Z" id="形状结合"></path>
                </g>
            </g>
        </g>
    </g>
</svg>