<?xml version="1.0" encoding="UTF-8"?>
<svg width="24px" height="24px" viewBox="0 0 24 24" version="1.1" xmlns="http://www.w3.org/2000/svg" xmlns:xlink="http://www.w3.org/1999/xlink">
    <title>回复</title>
    <g id="页面-3" stroke="none" stroke-width="1" fill="none" fill-rule="evenodd">
        <g id="切图/图标库" transform="translate(-232, -468)">
            <g id="回复" transform="translate(232, 468)">
                <rect id="矩形" x="0" y="0" width="24" height="24"></rect>
                <g id="编组" transform="translate(1.25, 2.5)" fill="#333333" fill-rule="nonzero">
                    <path d="M20.75,0 C21.1642136,0 21.5,0.335786438 21.5,0.75 L21.5,15.75 C21.5,16.1642136 21.1642136,16.5 20.75,16.5 L10.425,16.5 L5.5854102,18.9208204 C5.11790162,19.1545747 4.57299782,18.8504738 4.50671105,18.3521521 L4.5,18.25 L4.5,16.5 L0.75,16.5 C0.370304234,16.5 0.0565090391,16.2178461 0.006846616,15.8517706 L0,15.75 L0,0.75 C0,0.335786438 0.335786438,0 0.75,0 L20.75,0 Z M20,1.5 L1.5,1.5 L1.5,15 L5.25,15 C5.62969577,15 5.94349096,15.2821539 5.99315338,15.6482294 L6,15.75 L6,17.036 L9.9145898,15.0791796 C9.98401752,15.0444657 10.0581978,15.0208461 10.134436,15.0089568 L10.25,15 L20,15 L20,1.5 Z M5.75,6.75 C6.16421356,6.75 6.5,7.08578644 6.5,7.5 L6.5,9 C6.5,9.41421356 6.16421356,9.75 5.75,9.75 C5.33578644,9.75 5,9.41421356 5,9 L5,7.5 C5,7.08578644 5.33578644,6.75 5.75,6.75 Z M10.75,6.75 C11.1642136,6.75 11.5,7.08578644 11.5,7.5 L11.5,9 C11.5,9.41421356 11.1642136,9.75 10.75,9.75 C10.3357864,9.75 10,9.41421356 10,9 L10,7.5 C10,7.08578644 10.3357864,6.75 10.75,6.75 Z M15.75,6.75 C16.1642136,6.75 16.5,7.08578644 16.5,7.5 L16.5,9 C16.5,9.41421356 16.1642136,9.75 15.75,9.75 C15.3357864,9.75 15,9.41421356 15,9 L15,7.5 C15,7.08578644 15.3357864,6.75 15.75,6.75 Z" id="形状结合"></path>
                </g>
            </g>
        </g>
    </g>
</svg>