<?xml version="1.0" encoding="UTF-8"?>
<svg width="16px" height="16px" viewBox="0 0 16 16" version="1.1" xmlns="http://www.w3.org/2000/svg" xmlns:xlink="http://www.w3.org/1999/xlink">
    <title>重新配置</title>
    <g id="页面-3" stroke="none" stroke-width="1" fill="none" fill-rule="evenodd">
        <g id="AI课程04-实操备份" transform="translate(-1538, -639)">
            <g id="编组-3备份" transform="translate(1325, 563)">
                <g id="重新配置" transform="translate(213, 76)">
                    <rect id="矩形" x="0" y="0" width="16" height="16"></rect>
                    <path d="M7.99999455,1.52368927 C11.5898424,1.52368927 14.4999946,4.4338469 14.4999946,8.02368927 C14.4999946,11.6135316 11.5898424,14.5236893 7.99999455,14.5236893 C6.25304028,14.5236893 4.61457637,13.8306763 3.40380785,12.6198706 C3.2085487,12.4246054 3.20855356,12.1080229 3.4038187,11.9127638 C3.59908385,11.7175046 3.91566634,11.7175095 4.11092548,11.9127746 C5.13601409,12.9378947 6.52098554,13.5236893 7.99999455,13.5236893 C11.0375576,13.5236893 13.4999946,11.0612469 13.4999946,8.02368927 C13.4999946,4.98613165 11.0375576,2.52368927 7.99999455,2.52368927 C6.52099118,2.52368927 5.13601808,3.10948613 4.11091686,4.13461253 C3.94011801,4.30540829 3.68971068,4.5710191 3.38252716,4.90541219 C3.35816565,4.93194143 3.35816565,4.93194143 3.33381307,4.95849904 L3.12099455,5.18968927 L4.66666667,5.19035594 C4.91979718,5.19035594 5.12899397,5.37845853 5.16210226,5.6225089 L5.16666667,5.69035594 C5.16666667,5.96649831 4.94280904,6.19035594 4.66666667,6.19035594 L2,6.19035594 L1.91810469,6.18366966 L1.939,6.18568927 L1.90909569,6.18211244 C1.89383462,6.17929057 1.87871118,6.17577777 1.86373645,6.17154892 C1.82135169,6.15957166 1.78137721,6.14220462 1.74447329,6.12022032 C1.73676807,6.11564426 1.72921741,6.11086549 1.72176646,6.10586255 L1.66224002,6.05903033 L1.62657774,6.02292698 L1.615,6.00968927 L1.617,6.01068927 L1.615,6.00868927 L1.59094771,5.97808666 C1.58049011,5.9631359 1.57067535,5.94745511 1.56173599,5.93122439 C1.55532691,5.9196546 1.54942767,5.90781754 1.54402267,5.89580306 C1.53758873,5.88153153 1.53185927,5.86706355 1.5268028,5.85228341 C1.52139542,5.83633614 1.51664998,5.81968218 1.51277991,5.80285623 C1.51037909,5.79271543 1.50838772,5.78262764 1.50670457,5.77243588 C1.50364676,5.75364928 1.50159262,5.73458076 1.50063026,5.71545548 L1.5,3.02368927 C1.5,2.7475469 1.72385763,2.52368927 2,2.52368927 C2.27614237,2.52368927 2.5,2.7475469 2.5,3.02368927 L2.50149834,4.38678523 C2.53344821,4.35179958 2.56518146,4.31711397 2.596654,4.28277979 C2.62136125,4.2558354 2.62136125,4.2558354 2.64609363,4.22890229 C2.96216469,3.88483442 3.22052908,3.61078342 3.40380893,3.42750689 C4.61458174,2.21670435 6.25304604,1.52368927 7.99999455,1.52368927 Z M8.82198052,5.7615404 L10.2361941,7.17575396 C10.6918058,7.63136564 10.6918058,8.37005811 10.2361941,8.82566979 L8.82198052,10.2398833 C8.36636884,10.695495 7.62767637,10.695495 7.17206469,10.2398833 L5.75785113,8.82566979 C5.30223946,8.37005811 5.30223946,7.63136564 5.75785113,7.17575396 L7.17206469,5.7615404 C7.62767637,5.30592873 8.36636884,5.30592873 8.82198052,5.7615404 Z" id="形状结合" fill="#FFFFFF" fill-rule="nonzero"></path>
                </g>
            </g>
        </g>
    </g>
</svg>