<?xml version="1.0" encoding="UTF-8"?>
<svg width="16px" height="16px" viewBox="0 0 16 16" version="1.1" xmlns="http://www.w3.org/2000/svg" xmlns:xlink="http://www.w3.org/1999/xlink">
    <title>优惠卷备份 17</title>
    <g id="页面-3" stroke="none" stroke-width="1" fill="none" fill-rule="evenodd">
        <g id="AI课程04-实操备份" transform="translate(-1455, -605)">
            <g id="编组-3备份" transform="translate(1325, 563)">
                <g id="优惠卷备份-17" transform="translate(130, 42)">
                    <rect id="矩形" x="0" y="0" width="16" height="16"></rect>
                    <g id="编组" transform="translate(0.8333, 2.1667)" fill="#FFFFFF" fill-rule="nonzero">
                        <path d="M7.21156705,0 C9.61167676,0 11.5766632,1.85712728 11.7290046,4.20603768 C13.2633491,4.72808796 14.3333333,6.17300132 14.3333333,7.83333333 C14.3333333,9.95117387 12.6062985,11.6666667 10.4775498,11.6666667 C10.1181446,11.6666667 9.76482904,11.6176559 9.42506164,11.521984 C9.15925585,11.4471381 9.0044522,11.1709855 9.07929801,10.9051797 C9.15414381,10.6393739 9.43029649,10.4845702 9.69610228,10.559416 C9.94785807,10.6303056 10.2099826,10.6666667 10.4775498,10.6666667 C12.0555093,10.6666667 13.3333333,9.39738249 13.3333333,7.83333333 C13.3333333,6.51488156 12.4177657,5.37832758 11.141915,5.07694083 C10.9284792,5.02652214 10.7795987,4.84627081 10.7591587,4.63958935 C10.7454786,4.59583377 10.7385073,4.54873101 10.7385073,4.5 C10.7385073,2.56776314 9.16018517,1 7.21156705,1 C5.26294893,1 3.68462682,2.56776314 3.68462682,4.5 C3.68462682,4.68015003 3.58935281,4.83804761 3.44644268,4.92605488 C3.38098313,4.99890929 3.2935992,5.05280292 3.19141984,5.07694048 C1.91557876,5.37832905 1,6.51489064 1,7.83333333 C1,9.39737634 2.27783466,10.6666667 3.85578353,10.6666667 C4.12335076,10.6666667 4.38547526,10.6303056 4.63723105,10.559416 C4.90303684,10.4845702 5.17918952,10.6393739 5.25403533,10.9051797 C5.32888113,11.1709855 5.17407748,11.4471381 4.90827169,11.521984 C4.56850429,11.6176559 4.21518872,11.6666667 3.85578353,11.6666667 C1.72704618,11.6666667 0,9.9511685 0,7.83333333 C0,6.14033066 1.11252767,4.67129726 2.69681788,4.17623927 C2.86262578,1.84189745 4.82131894,0 7.21156705,0 Z M8.83333333,5 C10.2140424,5 11.3333333,6.11929096 11.3333333,7.5 C11.3333333,8.88070904 10.2140424,10 8.83333333,10 L5.5,10 C4.11929096,10 3,8.88070904 3,7.5 C3,6.11929096 4.11929096,5 5.5,5 L8.83333333,5 Z M8.83333333,6 L5.5,6 C4.67157571,6 4,6.67157571 4,7.5 C4,8.32842429 4.67157571,9 5.5,9 L8.83333333,9 C9.66175763,9 10.3333333,8.32842429 10.3333333,7.5 C10.3333333,6.67157571 9.66175763,6 8.83333333,6 Z M8.5,7 C8.77614237,7 9,7.22385763 9,7.5 C9,7.77614237 8.77614237,8 8.5,8 L5.83333333,8 C5.55719096,8 5.33333333,7.77614237 5.33333333,7.5 C5.33333333,7.22385763 5.55719096,7 5.83333333,7 L8.5,7 Z" id="形状结合"></path>
                    </g>
                </g>
            </g>
        </g>
    </g>
</svg>