<?xml version="1.0" encoding="UTF-8"?>
<svg width="16px" height="16px" viewBox="0 0 16 16" version="1.1" xmlns="http://www.w3.org/2000/svg" xmlns:xlink="http://www.w3.org/1999/xlink">
    <title>关机</title>
    <g id="页面-3" stroke="none" stroke-width="1" fill="none" fill-rule="evenodd">
        <g id="AI课程04-实操备份" transform="translate(-1538, -605)">
            <g id="编组-3备份" transform="translate(1325, 563)">
                <g id="关机" transform="translate(213, 42)">
                    <rect id="矩形" x="0" y="0" width="16" height="16"></rect>
                    <g id="编组" transform="translate(1.1667, 1.1667)" fill="#FFFFFF" fill-rule="nonzero">
                        <path d="M10.2430909,1.36221648 C10.479597,1.49379963 10.7076994,1.63893626 10.9261201,1.79673634 C11.298967,2.06607277 11.6427249,2.37164153 11.9517215,2.70832143 C13.0492901,3.90432602 13.6666667,5.44391454 13.6666667,7.07546154 C13.6666667,10.720132 10.6030075,13.6666667 6.83333333,13.6666667 C3.06365921,13.6666667 0,10.720132 0,7.07546154 C0,5.44390539 0.617373671,3.90431705 1.71495979,2.70830553 C2.02394177,2.37164153 2.36769963,2.06607277 2.74052489,1.79675199 C2.95896726,1.63893626 3.18706971,1.49379963 3.42357572,1.36221648 C3.66488484,1.22796106 3.96934006,1.31474523 4.10359548,1.55605435 C4.23785091,1.79736347 4.15106674,2.10181869 3.90975761,2.23607412 C3.70760886,2.34854216 3.51270926,2.47255254 3.3261201,2.60735563 C3.00800826,2.83715263 2.7149123,3.09768767 2.45171976,3.38445992 C1.52106838,4.39856692 1,5.69799195 1,7.07546154 C1,10.1589379 3.60741077,12.6666667 6.83333333,12.6666667 C10.0592559,12.6666667 12.6666667,10.1589379 12.6666667,7.07546154 C12.6666667,5.69800089 12.145595,4.39857363 11.2149598,3.38447396 C10.9517544,3.09768767 10.6586584,2.83715263 10.3405249,2.60733997 C10.1539574,2.47255254 9.9590578,2.34854216 9.75690905,2.23607412 C9.51559993,2.10181869 9.42881576,1.79736347 9.56307118,1.55605435 C9.69732661,1.31474523 10.0017818,1.22796106 10.2430909,1.36221648 Z M6.83333333,0 C7.10947571,0 7.33333333,0.223857625 7.33333333,0.5 L7.33333333,6.9957265 C7.33333333,7.27186887 7.10947571,7.4957265 6.83333333,7.4957265 C6.55719096,7.4957265 6.33333333,7.27186887 6.33333333,6.9957265 L6.33333333,0.5 C6.33333333,0.223857625 6.55719096,0 6.83333333,0 Z" id="形状结合"></path>
                    </g>
                </g>
            </g>
        </g>
    </g>
</svg>